<svg xmlns="http://www.w3.org/2000/svg" version="1.1" xmlns:xlink="http://www.w3.org/1999/xlink" width="512" height="512" x="0" y="0" viewBox="0 0 64 64" style="enable-background:new 0 0 512 512" xml:space="preserve" class=""><g><path fill="#ffc048" d="M32 3.4A28.59 28.59 0 0 0 3.4 32 28.59 28.59 0 0 0 32 60.6 28.59 28.59 0 0 0 60.6 32 28.59 28.59 0 0 0 32 3.4zm0 49.2a4.32 4.32 0 1 1 4.31-4.31A4.32 4.32 0 0 1 32 52.6zM37.23 17 35.6 39a.6.6 0 0 1-.6.56h-6a.6.6 0 0 1-.6-.56l-1.63-22a5.24 5.24 0 1 1 10.46 0z" data-name="Layer 35" opacity="1" data-original="#ffc048"></path></g></svg>